<svg width="29" height="30" viewBox="0 0 29 30" fill="none" xmlns="http://www.w3.org/2000/svg">
<path d="M28.5351 18.2656C28.8281 18.4414 28.9453 18.793 28.8867 19.0859C28.1835 21.1953 27.1288 23.0703 25.664 24.6523C25.4296 24.8867 25.0781 24.9453 24.7851 24.7695L22.2656 23.3633C21.2109 24.2422 20.039 24.9453 18.7499 25.4141V28.2852C18.7499 28.5781 18.5156 28.8711 18.164 28.9883C16.1132 29.3984 13.9453 29.457 11.7773 28.9883C11.4843 28.8711 11.2499 28.5781 11.2499 28.2852V25.4141C9.90228 24.9453 8.73041 24.2422 7.67572 23.3633L5.15619 24.7695C4.86322 24.9453 4.51166 24.8867 4.27728 24.6523C2.87103 23.0703 1.75775 21.1953 1.11322 19.0859C0.996033 18.793 1.11322 18.4414 1.40619 18.2656L3.92572 16.8594C3.69135 15.4531 3.69135 14.1055 3.92572 12.6992L1.40619 11.293C1.11322 11.1172 0.996033 10.7656 1.11322 10.4727C1.75775 8.36328 2.87103 6.48828 4.27728 4.90625C4.51166 4.67188 4.86322 4.61328 5.15619 4.78906L7.67572 6.25391C8.73041 5.31641 9.90228 4.61328 11.2499 4.14453V1.27344C11.2499 0.980469 11.4257 0.6875 11.7773 0.628906C13.8281 0.160156 15.996 0.101562 18.164 0.628906C18.5156 0.6875 18.7499 0.980469 18.7499 1.27344V4.14453C20.039 4.61328 21.2109 5.31641 22.2656 6.19531L24.7851 4.78906C25.0781 4.61328 25.4296 4.67188 25.664 4.90625C27.0703 6.48828 28.1835 8.36328 28.8281 10.4727C28.9453 10.7656 28.8281 11.1172 28.5351 11.293L26.0156 12.6992C26.3085 14.1055 26.3085 15.4531 26.0156 16.8594L28.5351 18.2656ZM14.9999 19.4375C17.5781 19.4375 19.6874 17.3867 19.6874 14.75C19.6874 12.1719 17.5781 10.0625 14.9999 10.0625C12.3632 10.0625 10.3124 12.1719 10.3124 14.75C10.3124 17.3867 12.3632 19.4375 14.9999 19.4375Z" fill="#1BBC9B"/>
</svg>
